<?xml version="1.0" encoding="utf-8"?>
<!-- Generator: Adobe Illustrator 23.0.1, SVG Export Plug-In . SVG Version: 6.00 Build 0)  -->
<svg version="1.1" id="Layer_1" xmlns="http://www.w3.org/2000/svg" xmlns:xlink="http://www.w3.org/1999/xlink" x="0px" y="0px"
	 viewBox="0 0 512 512" style="enable-background:new 0 0 512 512;" xml:space="preserve">
<style type="text/css">
	.st0{fill:#FFFFFF;}
</style>
<title>01</title>
<g>
	<path class="st0" d="M408.2,386.4c-30,0-54.3,24.3-54.4,54.4c0,30,24.3,54.3,54.4,54.3c30,0,54.3-24.3,54.3-54.3
		C462.5,410.8,438.2,386.4,408.2,386.4z M408.2,473.4c-18,0-32.6-14.6-32.6-32.6s14.6-32.6,32.6-32.6v0c18,0,32.6,14.6,32.6,32.6
		C440.8,458.8,426.2,473.4,408.2,473.4z"/>
	<path class="st0" d="M190.8,386.4c-30,0-54.4,24.3-54.4,54.4s24.3,54.3,54.4,54.3c30,0,54.3-24.3,54.3-54.3
		C245.1,410.8,220.8,386.4,190.8,386.4z M190.8,473.4c-18,0-32.6-14.6-32.6-32.6c0-18,14.6-32.6,32.6-32.6v0
		c18,0,32.6,14.6,32.6,32.6C223.4,458.8,208.8,473.4,190.8,473.4z"/>
	<path class="st0" d="M495.1,82.1H104L92.7,25.6c-1-5.1-5.5-8.7-10.6-8.7H16.9c-6,0-10.9,4.9-10.9,10.9c0,6,4.9,10.9,10.9,10.9h56.3
		l53,264.9c7.2,35.5,38.4,61.1,74.6,61.2h250.9v0c6,0,10.9-4.9,10.9-10.9c0-6-4.9-10.9-10.9-10.9H200.8
		c-25.9-0.1-48.2-18.3-53.3-43.7l-4.3-21.5H435c27.4-0.1,50.5-20.4,53.9-47.6l17-135.8c0.1-0.5,0.1-0.9,0.1-1.4
		C506,86.9,501.1,82.1,495.1,82.1z M467.4,227.4c-2.1,16.3-15.9,28.5-32.4,28.6H138.8l-30.4-152.2h374.4L467.4,227.4z"/>
</g>
</svg>
